<?xml version="1.0" standalone="no"?>
<!DOCTYPE svg PUBLIC "-//W3C//DTD SVG 20010904//EN"
 "http://www.w3.org/TR/2001/REC-SVG-20010904/DTD/svg10.dtd">
<svg version="1.0" xmlns="http://www.w3.org/2000/svg"
 width="300.000000pt" height="300.000000pt" viewBox="0 0 300.000000 300.000000"
 preserveAspectRatio="xMidYMid meet">
<metadata>
Created by potrace 1.14, written by Peter Selinger 2001-2017
</metadata>
<g transform="translate(0.000000,300.000000) scale(0.100000,-0.100000)"
fill="#000000" stroke="none">
<path d="M1300 2985 c-597 -82 -1088 -512 -1246 -1092 -208 -765 218 -1562
971 -1812 678 -225 1412 51 1769 665 362 623 234 1401 -309 1883 -316 280
-762 414 -1185 356z m1003 -893 l67 -67 -593 -593 -592 -592 -273 273 -272
272 70 70 70 70 199 -199 200 -199 363 357 c200 196 435 428 523 516 88 88
162 160 165 160 3 0 36 -30 73 -68z"/>
</g>
</svg>
